<?xml version="1.0" encoding="UTF-8"?>
<!DOCTYPE svg PUBLIC "-//W3C//DTD SVG 1.0//EN" "http://www.w3.org/TR/2001/REC-SVG-20010904/DTD/svg10.dtd">
<!-- Creator: CorelDRAW -->
<svg xmlns="http://www.w3.org/2000/svg" xml:space="preserve" width="14.7814mm" height="14.2086mm" version="1.0" style="shape-rendering:geometricPrecision; text-rendering:geometricPrecision; image-rendering:optimizeQuality; fill-rule:evenodd; clip-rule:evenodd"
viewBox="0 0 109.52 105.28"
 xmlns:xlink="http://www.w3.org/1999/xlink"
 xmlns:xodm="http://www.corel.com/coreldraw/odm/2003">
 <defs>
  <style type="text/css">
   <![CDATA[
    .fil0 {fill:url(#id0)}
   ]]>
  </style>
  <linearGradient id="id0" gradientUnits="userSpaceOnUse" x1="17.57" y1="13.95" x2="91.95" y2="91.33">
   <stop offset="0" style="stop-opacity:1; stop-color:#5D30FF"/>
   <stop offset="1" style="stop-opacity:1; stop-color:#2B7FFF"/>
  </linearGradient>
 </defs>
 <g id="Camada_x0020_1">
  <metadata id="CorelCorpID_0Corel-Layer"/>
  <path class="fil0" d="M33.58 41.61c4.84,-1.11 18.2,-0.47 24.1,-0.47 7.14,0 17.35,-1.09 22.96,1.99 12.04,6.62 10.48,25.89 -3.85,29.43 -4.41,1.09 -19.25,0.44 -24.76,0.44 -7.26,0 -17.36,1.14 -23.07,-2.09 -12.45,-7.05 -10.41,-25.85 4.62,-29.31zm34.23 8.04c-10.17,4.68 -3.7,18.72 6.08,15.13 9.82,-3.61 4.47,-19.98 -6.08,-15.13zm-32.19 -0.13c-9.66,4.1 -4.29,19.14 6.3,15.23 9.4,-3.47 4.37,-19.76 -6.3,-15.23zm40.97 -35.44c4.66,0.35 18.16,4.26 20.91,6.47 0.29,5.66 -2.86,3.09 -1.46,8.31 0.69,2.57 1.04,0.35 0.84,3.67 -0.11,1.87 -0.46,2.49 -0.25,4.79l2.58 -2.07 2.84 1.92c-0.14,-1.02 -0.51,-3.8 -0.49,-4.93 0.06,-3.25 0.84,-2.07 1.12,-4.54 0.48,-4.2 -1.41,0.19 -2.11,-9.06 2.21,-0.55 5.47,-0.92 7.09,-2.71 -0.71,-2.49 -2.59,-2.28 -5.48,-3.1l-20 -5.72c-33.08,-9.58 -21.64,-9.33 -54.68,-0.02 -4.57,1.29 -23.36,5.82 -25.53,8.21 1.88,4.1 21.69,6.09 26.12,9.28 0.04,4.15 -2.45,3.76 -5.84,6.07 -9.45,6.44 -8.78,13.42 -13.05,22.85l1.28 -10.5c-5.1,-0.24 -8.49,3.53 -9.23,8.12 -1.51,9.38 -2.86,16.52 3.59,20.12 3.43,1.92 2.1,1.12 3.67,5.06 8.23,20.67 31.11,15.39 35.49,17.26 5.93,2.54 19.24,13.02 22.8,11.6l0.18 -12.21c9.73,-0.42 14.81,0.9 22.73,-3.64 4.84,-2.77 9.55,-7.75 11.86,-13.91 2.87,-7.65 9.35,-1.99 7.69,-16.92 -0.88,-7.94 -1.17,-15.66 -10.01,-15.51l-0.52 5.38c-1.04,-2.01 -1.69,-6.83 -5.71,-12.54 -3.25,-4.61 -6.1,-5.31 -11.36,-8.56 -0.06,-6.32 5.03,-2.83 10,-6.5l-15.06 -6.66z"/>
 </g>
</svg>
